<svg width="300" height="108" viewBox="0 0 300 108" fill="none" xmlns="http://www.w3.org/2000/svg">
<path d="M150 91.5496C232.843 91.5496 300 89.671 300 87.3538C300 85.0365 232.843 83.158 150 83.158C67.1573 83.158 0 85.0365 0 87.3538C0 89.671 67.1573 91.5496 150 91.5496Z" fill="#E6E6E6"/>
<path d="M162.32 41.896V36.9482H137.582V37.2577V41.896V81.7865V86.7342H142.53H162.32V81.7865H142.53V41.896H162.32Z" fill="#3F3D56"/>
<path d="M174.38 36.9485V86.7343H199.118V36.9485H174.38ZM194.171 81.7866H179.328V41.8962H194.171V81.7866Z" fill="#00A3FF"/>
<path d="M105.731 81.7867V37.2578H100.784V81.7867V86.7344H105.731H125.522V81.7867H105.731Z" fill="#00A3FF"/>
<path d="M89.6515 41.896V36.9482H64.9133V37.2577V41.896V59.2128V64.1606V81.7865V86.7342H69.861H89.6515V81.7865H69.861V64.1606H89.6515V59.2128H69.861V41.896H89.6515Z" fill="#3F3D56"/>
<path d="M283.229 41.896V36.9482H258.49V37.2577V41.896V59.2128V64.1606V81.7865V86.7342H263.438H283.229V81.7865H263.438V64.1606H283.229V59.2128H263.438V41.896H283.229Z" fill="#00A3FF"/>
<path d="M48.2149 37.2578V78.1492L35.1696 65.1042L35.1399 65.1342L35.1122 65.1065L21.776 78.4427V37.1033H16.8283V86.5798H21.776V85.4397L35.1422 72.0734L48.2149 85.1464V86.7344H53.1626V37.2578H48.2149Z" fill="#3F3D56"/>
<path d="M242.101 37.2578V38.3976L228.735 51.7639L215.662 38.6912V37.1033H210.714V86.5798H215.662V45.6881L228.707 58.7335L228.737 58.7035L228.765 58.7308L242.101 45.3946V86.7344H247.049V37.2578H242.101Z" fill="#3F3D56"/>
<path d="M113.064 6.77929C114.741 6.77929 116.101 5.41964 116.101 3.74243C116.101 2.06522 114.741 0.705566 113.064 0.705566C111.387 0.705566 110.027 2.06522 110.027 3.74243C110.027 5.41964 111.387 6.77929 113.064 6.77929Z" fill="#00A3FF"/>
<path d="M38.155 40.5222C39.8322 40.5222 41.1919 39.1626 41.1919 37.4853C41.1919 35.8081 39.8322 34.4485 38.155 34.4485C36.4778 34.4485 35.1181 35.8081 35.1181 37.4853C35.1181 39.1626 36.4778 40.5222 38.155 40.5222Z" fill="#00A3FF"/>
<path d="M98.2174 108.008C99.8946 108.008 101.254 106.648 101.254 104.971C101.254 103.294 99.8946 101.934 98.2174 101.934C96.5402 101.934 95.1805 103.294 95.1805 104.971C95.1805 106.648 96.5402 108.008 98.2174 108.008Z" fill="#00A3FF"/>
<path d="M174.476 15.8899C176.154 15.8899 177.513 14.5302 177.513 12.853C177.513 11.1758 176.154 9.81616 174.476 9.81616C172.799 9.81616 171.44 11.1758 171.44 12.853C171.44 14.5302 172.799 15.8899 174.476 15.8899Z" fill="#00A3FF"/>
<path d="M263.895 105.309C265.572 105.309 266.932 103.949 266.932 102.272C266.932 100.595 265.572 99.2349 263.895 99.2349C262.218 99.2349 260.858 100.595 260.858 102.272C260.858 103.949 262.218 105.309 263.895 105.309Z" fill="#00A3FF"/>
<path d="M266.932 25.6753C268.609 25.6753 269.969 24.3156 269.969 22.6384C269.969 20.9612 268.609 19.6016 266.932 19.6016C265.255 19.6016 263.895 20.9612 263.895 22.6384C263.895 24.3156 265.255 25.6753 266.932 25.6753Z" fill="#00A3FF"/>
<path d="M228.465 80.3389C230.142 80.3389 231.502 78.9792 231.502 77.302C231.502 75.6248 230.142 74.2651 228.465 74.2651C226.788 74.2651 225.428 75.6248 225.428 77.302C225.428 78.9792 226.788 80.3389 228.465 80.3389Z" fill="#00A3FF"/>
</svg>
